<svg width="59" height="59" viewBox="0 0 59 59" fill="none" xmlns="http://www.w3.org/2000/svg">
<circle cx="29.5" cy="29.5" r="29" fill="url(#paint0_linear_606_166)" stroke="black"/>
<path d="M15.75 24.3403V36.125C15.75 37.3848 16.2504 38.593 17.1412 39.4838C18.032 40.3746 19.2402 40.875 20.5 40.875H39.5C40.7598 40.875 41.968 40.3746 42.8588 39.4838C43.7496 38.593 44.25 37.3848 44.25 36.125V21.875C44.25 20.6152 43.7496 19.407 42.8588 18.5162C41.968 17.6254 40.7598 17.125 39.5 17.125H20.5C19.2402 17.125 18.032 17.6254 17.1412 18.5162C16.2504 19.407 15.75 20.6152 15.75 21.875V24.3403ZM20.5 19.5H39.5C40.1299 19.5 40.734 19.7502 41.1794 20.1956C41.6248 20.641 41.875 21.2451 41.875 21.875V23.6325L30 30.026L18.125 23.6325V21.875C18.125 21.2451 18.3752 20.641 18.8206 20.1956C19.266 19.7502 19.8701 19.5 20.5 19.5ZM18.125 26.3305L29.4371 32.42C29.6101 32.5131 29.8035 32.5619 30 32.5619C30.1965 32.5619 30.3899 32.5131 30.5629 32.42L41.875 26.3305V36.125C41.875 36.7549 41.6248 37.359 41.1794 37.8044C40.734 38.2498 40.1299 38.5 39.5 38.5H20.5C19.8701 38.5 19.266 38.2498 18.8206 37.8044C18.3752 37.359 18.125 36.7549 18.125 36.125V26.3305Z" fill="white"/>
<defs>
<linearGradient id="paint0_linear_606_166" x1="29.5" y1="0" x2="29.5" y2="59" gradientUnits="userSpaceOnUse">
<stop stop-color="#EE400D"/>
<stop offset="1" stop-color="#FF6600"/>
</linearGradient>
</defs>
</svg>
