<svg width="34" height="34" viewBox="0 0 34 34" fill="none" xmlns="http://www.w3.org/2000/svg">
<path d="M16.9993 2.83337C10.766 2.83337 5.66602 7.93337 5.66602 14.1667C5.66602 21.8167 15.5827 30.4584 16.0077 30.8834C16.291 31.025 16.716 31.1667 16.9993 31.1667C17.2827 31.1667 17.7077 31.025 17.991 30.8834C18.416 30.4584 28.3327 21.8167 28.3327 14.1667C28.3327 7.93337 23.2327 2.83337 16.9993 2.83337ZM16.9993 27.9084C14.0243 25.075 8.49935 18.9834 8.49935 14.1667C8.49935 9.49171 12.3243 5.66671 16.9993 5.66671C21.6743 5.66671 25.4993 9.49171 25.4993 14.1667C25.4993 18.8417 19.9743 25.075 16.9993 27.9084ZM16.9993 8.50004C13.8827 8.50004 11.3327 11.05 11.3327 14.1667C11.3327 17.2834 13.8827 19.8334 16.9993 19.8334C20.116 19.8334 22.666 17.2834 22.666 14.1667C22.666 11.05 20.116 8.50004 16.9993 8.50004ZM16.9993 17C15.441 17 14.166 15.725 14.166 14.1667C14.166 12.6084 15.441 11.3334 16.9993 11.3334C18.5577 11.3334 19.8327 12.6084 19.8327 14.1667C19.8327 15.725 18.5577 17 16.9993 17Z" fill="white"/>
</svg>
