<svg width="59" height="59" viewBox="0 0 59 59" fill="none" xmlns="http://www.w3.org/2000/svg">
<circle cx="29.5" cy="29.5" r="29" fill="url(#paint0_linear_606_167)" stroke="black"/>
<path d="M39.5625 25.8125C39.5625 23.2764 38.555 20.8441 36.7617 19.0508C34.9684 17.2575 32.5361 16.25 30 16.25C27.4639 16.25 25.0316 17.2575 23.2383 19.0508C21.445 20.8441 20.4375 23.2764 20.4375 25.8125C20.4375 29.7352 23.5761 34.848 30 40.9722C36.4239 34.848 39.5625 29.7352 39.5625 25.8125ZM30 43.875C22.2076 36.7924 18.3125 30.7701 18.3125 25.8125C18.3125 22.7128 19.5439 19.74 21.7357 17.5482C23.9275 15.3564 26.9003 14.125 30 14.125C33.0997 14.125 36.0725 15.3564 38.2643 17.5482C40.4561 19.74 41.6875 22.7128 41.6875 25.8125C41.6875 30.7701 37.7924 36.7924 30 43.875Z" fill="white"/>
<path d="M30 29C30.8454 29 31.6561 28.6642 32.2539 28.0664C32.8517 27.4686 33.1875 26.6579 33.1875 25.8125C33.1875 24.9671 32.8517 24.1564 32.2539 23.5586C31.6561 22.9608 30.8454 22.625 30 22.625C29.1546 22.625 28.3439 22.9608 27.7461 23.5586C27.1483 24.1564 26.8125 24.9671 26.8125 25.8125C26.8125 26.6579 27.1483 27.4686 27.7461 28.0664C28.3439 28.6642 29.1546 29 30 29ZM30 31.125C28.591 31.125 27.2398 30.5653 26.2435 29.569C25.2472 28.5727 24.6875 27.2215 24.6875 25.8125C24.6875 24.4035 25.2472 23.0523 26.2435 22.056C27.2398 21.0597 28.591 20.5 30 20.5C31.409 20.5 32.7602 21.0597 33.7565 22.056C34.7528 23.0523 35.3125 24.4035 35.3125 25.8125C35.3125 27.2215 34.7528 28.5727 33.7565 29.569C32.7602 30.5653 31.409 31.125 30 31.125Z" fill="white"/>
<defs>
<linearGradient id="paint0_linear_606_167" x1="29.5" y1="0" x2="29.5" y2="59" gradientUnits="userSpaceOnUse">
<stop stop-color="#EE400D"/>
<stop offset="1" stop-color="#FF6600"/>
</linearGradient>
</defs>
</svg>
