<svg width="59" height="59" viewBox="0 0 59 59" fill="none" xmlns="http://www.w3.org/2000/svg">
<circle cx="29.5" cy="29.5" r="29" fill="url(#paint0_linear_606_165)" stroke="black"/>
<path d="M18.666 26.1667C18.666 20.8245 18.666 18.1526 20.3263 16.4937C21.9867 14.8348 24.6571 14.8334 29.9993 14.8334H32.1243C37.4666 14.8334 40.1384 14.8334 41.7973 16.4937C43.4563 18.154 43.4577 20.8245 43.4577 26.1667V31.8334C43.4577 37.1756 43.4577 39.8475 41.7973 41.5064C40.137 43.1653 37.4666 43.1667 32.1243 43.1667H29.9993C24.6571 43.1667 21.9853 43.1667 20.3263 41.5064C18.6674 39.846 18.666 37.1756 18.666 31.8334V26.1667Z" stroke="white" stroke-width="1.5" stroke-linecap="round" stroke-linejoin="round"/>
<path d="M26.8827 28.9632C26.2778 27.9092 25.9859 27.0492 25.8103 26.1766C25.5496 24.8874 26.146 23.6266 27.132 22.8219C27.5499 22.4819 28.0273 22.5981 28.2738 23.0415L28.8306 24.0402C29.2712 24.8307 29.4922 25.2274 29.4483 25.6468C29.4058 26.0661 29.1083 26.4075 28.5133 27.0917L26.8827 28.9632ZM26.8827 28.9632C28.1578 31.1482 29.9761 32.9665 32.1612 34.2417M32.1612 34.2417C33.2152 34.8466 34.0751 35.1384 34.9478 35.3141C36.2369 35.5748 37.4978 34.9783 38.3024 33.9923C38.6424 33.5744 38.5263 33.097 38.0828 32.8505L37.0855 32.2937C36.2922 31.8532 35.8969 31.6322 35.4776 31.6761C35.0583 31.7186 34.7168 32.0161 34.0326 32.6111L32.1612 34.2417ZM20.0827 20.5H16.541M20.0827 29H16.541M20.0827 37.5H16.541" stroke="white" stroke-width="1.5" stroke-linecap="round" stroke-linejoin="round"/>
<defs>
<linearGradient id="paint0_linear_606_165" x1="29.5" y1="0" x2="29.5" y2="59" gradientUnits="userSpaceOnUse">
<stop stop-color="#EE400D"/>
<stop offset="1" stop-color="#FF6600"/>
</linearGradient>
</defs>
</svg>
