<svg width="32" height="32" viewBox="0 0 32 32" fill="none" xmlns="http://www.w3.org/2000/svg">
<g clip-path="url(#clip0_779_60)">
<path d="M15.9993 2.66663C23.3633 2.66663 29.3327 8.63596 29.3327 16C29.3327 23.364 23.3633 29.3333 15.9993 29.3333C8.63535 29.3333 2.66602 23.364 2.66602 16C2.66602 8.63596 8.63535 2.66663 15.9993 2.66663ZM15.9993 5.33329C13.1704 5.33329 10.4573 6.4571 8.45688 8.45749C6.45649 10.4579 5.33268 13.171 5.33268 16C5.33268 18.8289 6.45649 21.542 8.45688 23.5424C10.4573 25.5428 13.1704 26.6666 15.9993 26.6666C18.8283 26.6666 21.5414 25.5428 23.5418 23.5424C25.5422 21.542 26.666 18.8289 26.666 16C26.666 13.171 25.5422 10.4579 23.5418 8.45749C21.5414 6.4571 18.8283 5.33329 15.9993 5.33329ZM15.9993 7.99996C16.3259 8 16.6411 8.1199 16.8852 8.33691C17.1292 8.55392 17.2851 8.85296 17.3233 9.17729L17.3327 9.33329V15.448L20.942 19.0573C21.1811 19.2972 21.32 19.6192 21.3303 19.9578C21.3407 20.2964 21.2217 20.6262 20.9977 20.8803C20.7736 21.1344 20.4613 21.2937 20.124 21.3258C19.7868 21.3579 19.45 21.2605 19.182 21.0533L19.0567 20.9426L15.0567 16.9426C14.8495 16.7352 14.7164 16.4653 14.678 16.1746L14.666 16V9.33329C14.666 8.97967 14.8065 8.64053 15.0565 8.39048C15.3066 8.14044 15.6457 7.99996 15.9993 7.99996Z" fill="white"/>
</g>
<defs>
<clipPath id="clip0_779_60">
<rect width="32" height="32" fill="white"/>
</clipPath>
</defs>
</svg>
