<svg width="22" height="22" viewBox="0 0 22 22" fill="none" xmlns="http://www.w3.org/2000/svg">
<path d="M3.78125 19.25C3.14307 19.25 2.53103 18.9965 2.07977 18.5452C1.62851 18.094 1.375 17.4819 1.375 16.8438V13.4062C1.375 13.1327 1.48365 12.8704 1.67705 12.677C1.87044 12.4836 2.13275 12.375 2.40625 12.375C2.67975 12.375 2.94206 12.4836 3.13545 12.677C3.32885 12.8704 3.4375 13.1327 3.4375 13.4062V16.8438C3.4375 17.0335 3.5915 17.1875 3.78125 17.1875H18.2188C18.3099 17.1875 18.3974 17.1513 18.4618 17.0868C18.5263 17.0224 18.5625 16.9349 18.5625 16.8438V13.4062C18.5625 13.1327 18.6712 12.8704 18.8645 12.677C19.0579 12.4836 19.3202 12.375 19.5938 12.375C19.8673 12.375 20.1296 12.4836 20.323 12.677C20.5163 12.8704 20.625 13.1327 20.625 13.4062V16.8438C20.625 17.4819 20.3715 18.094 19.9202 18.5452C19.469 18.9965 18.8569 19.25 18.2188 19.25H3.78125Z" fill="white"/>
<path d="M16.1969 6.49001C16.2926 6.58571 16.3685 6.69932 16.4203 6.82436C16.4721 6.9494 16.4987 7.08342 16.4987 7.21876C16.4987 7.3541 16.4721 7.48812 16.4203 7.61315C16.3685 7.73819 16.2926 7.85181 16.1969 7.94751C16.1012 8.04321 15.9875 8.11912 15.8625 8.17092C15.7375 8.22271 15.6034 8.24937 15.4681 8.24937C15.3328 8.24937 15.1987 8.22271 15.0737 8.17092C14.9487 8.11912 14.8351 8.04321 14.7394 7.94751L12.0306 5.24013V13.0625C12.0306 13.336 11.922 13.5983 11.7286 13.7917C11.5352 13.9851 11.2729 14.0938 10.9994 14.0938C10.7259 14.0938 10.4636 13.9851 10.2702 13.7917C10.0768 13.5983 9.96811 13.336 9.96811 13.0625V5.24013L7.25936 7.94751C7.16366 8.04321 7.05004 8.11912 6.925 8.17092C6.79997 8.22271 6.66595 8.24937 6.53061 8.24937C6.39527 8.24937 6.26125 8.22271 6.13621 8.17092C6.01117 8.11912 5.89756 8.04321 5.80186 7.94751C5.70616 7.85181 5.63024 7.73819 5.57845 7.61315C5.52666 7.48812 5.5 7.3541 5.5 7.21876C5.5 7.08342 5.52666 6.9494 5.57845 6.82436C5.63024 6.69932 5.70616 6.58571 5.80186 6.49001L10.2706 2.02126C10.464 1.82814 10.7261 1.71967 10.9994 1.71967C11.2726 1.71967 11.5347 1.82814 11.7281 2.02126L16.1969 6.49001Z" fill="white"/>
</svg>
